PathFileType	4	(X/Y/Z)	Walk2.trc
DataRate	CameraRate	NumFrames	NumMarkers	Units	OrigDataRate	OrigDataStartFrame	OrigNumFrames
200.000000	200.000000	5	61	mm	200.000000	216	450
Frame#	Times		LFHD		RFHD		CLAV		STRN		LASI		RASI		RACR1		RUA1		RWRU		RCAR		LACR1		LUA1		LFA1		LWRU		LCAR		RTH3		RTH2		RTB1		LTH1		LTH3		LTH2		LTH4		LLFC		LTB1		LTB3		LTB2		LTB4		LToe		RTB4		RWRR		LBHD		RLFC		RMFC		RTB3		RMT5		RToe		RFA1		LWRR		LElbow		RTH4		RMT1		RTB2		RMMAL		LMFC		LPSI		RTH1		RElbow		LElbowM		LMT5		RBHD		RBack		RPSI		RLMAL		RCAL		C7		T10		LMMAL		LMT1		RElbowM		LCAL		LLMAL
			X1	Y1	Z1	X2	Y2	Z2	X3	Y3	Z3	X4	Y4	Z4	X5	Y5	Z5	X6	Y6	Z6	X7	Y7	Z7	X8	Y8	Z8	X9	Y9	Z9	X10	Y10	Z10	X11	Y11	Z11	X12	Y12	Z12	X13	Y13	Z13	X14	Y14	Z14	X15	Y15	Z15	X16	Y16	Z16	X17	Y17	Z17	X18	Y18	Z18	X19	Y19	Z19	X20	Y20	Z20	X21	Y21	Z21	X22	Y22	Z22	X23	Y23	Z23	X24	Y24	Z24	X25	Y25	Z25	X26	Y26	Z26	X27	Y27	Z27	X28	Y28	Z28	X29	Y29	Z29	X30	Y30	Z30	X31	Y31	Z31	X32	Y32	Z32	X33	Y33	Z33	X34	Y34	Z34	X35	Y35	Z35	X36	Y36	Z36	X37	Y37	Z37	X38	Y38	Z38	X39	Y39	Z39	X40	Y40	Z40	X41	Y41	Z41	X42	Y42	Z42	X43	Y43	Z43	X44	Y44	Z44	X45	Y45	Z45	X46	Y46	Z46	X47	Y47	Z47	X48	Y48	Z48	X49	Y49	Z49	X50	Y50	Z50	X51	Y51	Z51	X52	Y52	Z52	X53	Y53	Z53	X54	Y54	Z54	X55	Y55	Z55	X56	Y56	Z56	X57	Y57	Z57	X58	Y58	Z58	X59	Y59	Z59	X60	Y60	Z60	X61	Y61	Z61

216	1.08	-148.33	1566.8	-78.334	-146.82	1572.4	20.971	-208.51	1309.1	-17.566	-185.78	1175.7	-13.31	-225.79	910.46	-133.84	-233.63	905.76	114.9	-282.31	1349.1	147.74	-275.74	1179.8	200.95	-119.12	807.25	202.85	-105.36	741.82	251.68	-288.07	1360.2	-168.47	-326.17	1192.8	-233.11	-380.31	912.78	-296.82	-341.88	793.09	-300.88	-385.53	736.32	-334.58	-265.97	563.69	152.01	-217.23	656.28	140.42	-338.86	322.19	97.729	-256.16	738.85	-200.89	-230.04	573.76	-157.76	-187.91	669.97	-164.41	-244.34	655.69	-181.49	-205.85	437.24	-128.69	-175.21	341.18	-56.318	-203.27	173.7	-35.479	-201.78	251.73	-106.81	-191.47	256.85	-46.478	-70.07	28.995	-25.861	-415.68	280.38	90.465	-165.75	784.99	247.42	-300.78	1527.7	-96.878	-275.41	414.76	130.72	-282.14	411.54	1.3934	-490.91	239.46	80.013	-604.02	116.17	104.83	-545.6	52.264	71.367	-196.56	900.35	248.6	-409.75	797.79	-288.64	-380.35	1046.5	-258.83	-269.89	646.84	164.28	-569.65	92.647	29.918	-440.59	320.56	129.14	-586.31	224.15	14.111	-230.33	434.77	2.106	-402.6	961.22	-62.409	-271.09	733	181.3	-272.99	1012.6	235.31	-387.9	1024.3	-186.56	-155.69	24.095	-83.676	-295.08	1541.4	46.599	-399.91	1288.7	58.004	-403.2	952.42	37.909	-613.83	230.49	92.301	-657.94	256.85	44.51	-321.34	1412.6	-19.515	-395.92	1200.2	-10.387	-251.61	85.053	4.3929	-125.99	31.162	0.19762	-304.68	1004.4	162.47	-318.66	36.907	-34.564	-260.91	62.928	-75.076
217	1.085	-140.15	1567.6	-78.264	-138.68	1573.3	21.008	-201.14	1310.5	-17.536	-178.48	1177.1	-13.053	-218.29	911.51	-133.77	-226.26	907.67	114.86	-275.5	1350.3	147.72	-269.43	1181	200.86	-116.62	805.68	203.65	-103.74	740.42	252.93	-280.28	1361.8	-168.47	-316.95	1194.1	-233.48	-365.89	913.2	-297.65	-324.75	794.46	-300.94	-366.58	736.73	-335.17	-254.03	565.76	152.22	-206.65	659.06	140.84	-322.78	324	97.7	-249.86	739.74	-200.69	-226.12	574.2	-157.88	-182.71	669.95	-163.98	-239.25	656.37	-181.43	-204.21	437.15	-128.79	-174.06	340.95	-56.552	-202.79	173.61	-35.656	-201.09	251.6	-107	-190.69	256.69	-46.672	-69.904	28.75	-25.935	-399.35	281.83	90.452	-163.5	784.6	248.62	-292.85	1529.4	-96.877	-260.27	416.94	130.81	-266.45	413.75	1.3247	-474.33	240.47	80.031	-584.33	116.91	105.32	-524.41	54.164	72.175	-192.46	900.44	248.99	-392.85	797.64	-289.63	-369.26	1047.2	-259.85	-259.39	648.94	164.54	-549.51	93.639	30.571	-424.59	322.02	128.91	-569.36	224.26	13.797	-228.83	434.78	1.926	-395.04	962.69	-62.9	-262.09	734.96	181.45	-267.04	1013.7	234.97	-377.18	1025	-187.66	-155.66	24.101	-83.704	-287.07	1543.1	46.635	-392.61	1289.9	57.451	-395.79	953.87	37.43	-597.1	230.37	91.996	-642.17	255.39	43.948	-313.92	1414	-19.522	-388.46	1201.5	-10.955	-251.46	85.189	4.3384	-125.95	31.182	0.23604	-298.44	1005.6	162.09	-318.63	37.068	-34.647	-260.88	63.006	-75.126
218	1.09	-132.01	1568.5	-78.159	-130.57	1574.2	21.082	-193.77	1312	-17.526	-171.17	1178.6	-12.8	-210.81	912.52	-133.67	-218.88	909.6	114.83	-268.68	1351.4	147.68	-263.15	1182.1	200.78	-114.2	804.22	204.53	-102.23	739.13	254.25	-272.5	1363.5	-168.48	-307.78	1195.5	-233.86	-351.43	913.72	-298.43	-307.54	796.02	-300.91	-347.51	737.34	-335.63	-242.14	567.91	152.44	-196.16	661.91	141.32	-306.66	325.87	97.721	-243.57	740.61	-200.45	-222.24	574.66	-157.96	-177.54	669.92	-163.48	-234.18	657.03	-181.31	-202.65	437.1	-128.87	-172.99	340.77	-56.74	-202.34	173.56	-35.8	-200.43	251.51	-107.16	-189.97	256.57	-46.827	-69.723	28.507	-26.01	-382.9	283.18	90.481	-161.34	784.31	249.84	-284.94	1531.1	-96.854	-245.18	419.26	130.89	-250.93	416.1	1.2809	-457.54	241.26	80.087	-564.29	117.24	105.77	-502.78	55.871	72.889	-188.45	900.6	249.42	-375.85	797.66	-290.53	-358.2	1048	-260.88	-248.96	651.09	164.83	-528.99	94.323	31.168	-408.54	323.35	128.7	-552.15	223.95	13.503	-227.48	434.82	1.7561	-387.5	964.12	-63.355	-253.21	736.92	181.65	-261.17	1014.7	234.66	-366.49	1025.7	-188.77	-155.63	24.103	-83.72	-279.09	1544.7	46.693	-385.31	1291.1	56.894	-388.38	955.3	36.988	-580.13	229.78	91.706	-626.14	253.42	43.418	-306.49	1415.4	-19.537	-381.01	1202.8	-11.532	-251.31	85.347	4.2897	-125.9	31.195	0.27474	-292.28	1006.9	161.75	-318.59	37.258	-34.717	-260.84	63.11	-75.167
219	1.095	-123.91	1569.4	-78.025	-122.5	1575	21.19	-186.41	1313.3	-17.536	-163.87	1180	-12.555	-203.35	913.49	-133.55	-211.49	911.51	114.81	-261.85	1352.5	147.61	-256.89	1183.1	200.68	-111.85	802.87	205.51	-100.84	737.93	255.64	-264.74	1365.1	-168.5	-298.65	1197	-234.27	-336.93	914.35	-299.18	-290.29	797.77	-300.78	-328.34	738.17	-335.98	-230.29	570.13	152.67	-185.75	664.82	141.85	-290.51	327.77	97.796	-237.29	741.44	-200.16	-218.39	575.11	-158.02	-172.42	669.89	-162.92	-229.13	657.65	-181.15	-201.15	437.07	-128.92	-171.99	340.63	-56.876	-201.9	173.54	-35.908	-199.79	251.46	-107.28	-189.3	256.48	-46.942	-69.527	28.266	-26.087	-366.33	284.43	90.552	-159.28	784.1	251.08	-277.04	1532.7	-96.814	-230.14	421.7	130.96	-235.55	418.58	1.2566	-440.55	241.82	80.18	-543.96	117.17	106.18	-480.79	57.373	73.532	-184.54	900.81	249.89	-358.74	797.84	-291.35	-347.16	1048.8	-261.93	-238.59	653.26	165.16	-508.14	94.698	31.722	-392.46	324.54	128.51	-534.7	223.25	13.231	-226.27	434.88	1.5986	-379.97	965.5	-63.77	-244.42	738.89	181.89	-255.38	1015.8	234.37	-355.82	1026.4	-189.9	-155.59	24.102	-83.724	-271.13	1546.3	46.769	-378.01	1292.3	56.332	-380.96	956.72	36.586	-562.92	228.75	91.433	-609.85	250.95	42.917	-299.07	1416.7	-19.565	-373.57	1204.1	-12.115	-251.14	85.524	4.2494	-125.84	31.201	0.31322	-286.2	1008.1	161.44	-318.54	37.477	-34.769	-260.78	63.242	-75.196
220	1.1	-115.83	1570.4	-77.867	-114.47	1575.9	21.327	-179.05	1314.7	-17.568	-156.56	1181.4	-12.326	-195.91	914.42	-133.4	-204.09	913.39	114.8	-255	1353.6	147.51	-250.64	1184.2	200.57	-109.54	801.62	206.59	-99.557	736.82	257.11	-256.99	1366.7	-168.53	-289.56	1198.4	-234.71	-322.42	915.08	-299.87	-272.99	799.7	-300.57	-309.07	739.21	-336.2	-218.47	572.4	152.9	-175.42	667.77	142.41	-274.35	329.68	97.926	-231.02	742.23	-199.84	-214.57	575.57	-158.05	-167.34	669.84	-162.32	-224.1	658.23	-180.94	-199.72	437.07	-128.94	-171.06	340.53	-56.961	-201.48	173.55	-35.979	-199.16	251.45	-107.37	-188.68	256.42	-47.015	-69.317	28.028	-26.166	-349.66	285.57	90.665	-157.3	783.96	252.33	-269.16	1534.3	-96.76	-215.16	424.24	131.03	-220.31	421.13	1.2469	-423.37	242.15	80.305	-523.37	116.72	106.55	-458.5	58.662	74.123	-180.72	901.07	250.38	-341.54	798.18	-292.09	-336.16	1049.7	-262.99	-228.28	655.45	165.51	-487	94.767	32.245	-376.36	325.58	128.35	-517.02	222.15	12.985	-225.22	434.98	1.4574	-372.45	966.84	-64.141	-235.73	740.84	182.17	-249.65	1016.9	234.1	-345.19	1027.1	-191.04	-155.55	24.099	-83.715	-263.2	1547.7	46.858	-370.69	1293.4	55.766	-373.54	958.11	36.226	-545.5	227.29	91.177	-593.29	248.01	42.445	-291.65	1418	-19.611	-366.14	1205.3	-12.703	-250.97	85.722	4.2201	-125.77	31.202	0.35096	-280.18	1009.4	161.17	-318.48	37.726	-34.801	-260.71	63.402	-75.211
